<svg xmlns="http://www.w3.org/2000/svg" width="28" height="29" version="1"><rect id="backgroundrect" width="100%" height="100%" x="0" y="0" fill="none" stroke="none"/>
 
 
 
 
 
<g class="currentLayer" style=""><title>Layer 1</title><circle fill="#4d88ef" cx="14.163265265524387" cy="14.65306095033884" r="14" id="svg_1" class="" fill-opacity="1"/><path fill="#fff" d="m15.823121984517483,2.9624526557588053 v3.2344 c4.456022830454681,0.9325 7.618670767604058,4.5686 7.623462658417921,8.765600000000001 c0,4.9706 -4.388282919404167,9 -9.801594846537327,9 c-4.987378177746411,-0.00540000000000001 -9.175164029234185,-3.4488000000000003 -9.729280857891764,-8 c0,0 -0.07232487930650494,-1 1.016741214753199,-1 s1.1763002881938853,1 1.1763002881938853,1 c0.5412658487476725,3.441 3.7496545618475574,5.996 7.536337370893143,6 c4.210329519634812,0 7.623462658417921,-3.134 7.623462658417921,-7 c-0.0033761048915850874,-3.093 -2.2173385675055552,-5.817 -5.445330470298515,-6.7010000000000005 v2.701 l-4.356264376238812,-4 z" id="svg_3" class="" transform="translate(-0.08163265138864517,0) "/><path fill="#fff" opacity=".2" d="m14,0 a14,14 0 0 0 -14,14 a14,14 0 0 0 0.02150000000000001,0.5860000000000002 a14,14 0 0 1 13.978,-13.586 a14,14 0 0 1 13.979,13.414 a14,14 0 0 0 0.021000000000000008,-0.4140000000000001 a14,14 0 0 0 -14,-14 z" id="svg_4" class=""/><path opacity=".2" d="m27.979,14.414000000000001 a14,14 0 0 1 -13.979,13.586 a14,14 0 0 1 -13.978,-13.414 a14,14 0 0 0 -0.022000000000000013,0.4140000000000001 a14,14 0 0 0 14,14 a14,14 0 0 0 14,-14 a14,14 0 0 0 -0.021000000000000008,-0.5860000000000002 z" id="svg_5" class=""/></g></svg>